<svg width="111" height="22" viewBox="0 0 111 22" fill="none" xmlns="http://www.w3.org/2000/svg">
<rect x="0.421997" y="12.129" width="4.35889" height="4.35889" rx="0.335299" fill="#121212"/>
<rect x="3.25073" y="6.17944" width="4.35889" height="11.9031" rx="0.335299" transform="rotate(-30 3.25073 6.17944)" fill="#121212"/>
<rect x="10.4274" y="6.17944" width="4.35889" height="11.9031" rx="0.335299" transform="rotate(-30 10.4274 6.17944)" fill="#121212"/>
<path d="M39.5323 14.14C39.5323 15.02 39.1857 15.76 38.4923 16.36C37.799 16.9467 36.7723 17.24 35.4123 17.24C34.8523 17.24 34.299 17.18 33.7523 17.06C33.219 16.9533 32.7323 16.8 32.2923 16.6L32.6123 13.9H33.0723C33.259 13.9 33.3857 14 33.4523 14.2C33.5457 14.44 33.6257 14.74 33.6923 15.1C33.7723 15.4467 33.8257 15.74 33.8523 15.98C34.0923 16.1 34.3523 16.2 34.6323 16.28C34.9257 16.36 35.219 16.4 35.5123 16.4C36.179 16.4 36.7323 16.2533 37.1723 15.96C37.6257 15.6533 37.8523 15.22 37.8523 14.66C37.8523 14.1133 37.659 13.6933 37.2723 13.4C36.8857 13.1067 36.299 12.82 35.5123 12.54C35.1123 12.3933 34.7323 12.24 34.3723 12.08C34.0123 11.9067 33.6923 11.7067 33.4123 11.48C33.1457 11.2533 32.9323 10.9867 32.7723 10.68C32.6257 10.36 32.5523 9.98 32.5523 9.54C32.5523 8.60667 32.8723 7.89333 33.5123 7.4C34.1657 6.89333 35.0657 6.64 36.2123 6.64C36.679 6.64 37.1657 6.69333 37.6723 6.8C38.1923 6.89333 38.659 7.04667 39.0723 7.26L38.7523 9.74H38.2923C38.1323 9.74 38.0057 9.64667 37.9123 9.46C37.819 9.20667 37.739 8.94667 37.6723 8.68C37.6057 8.41333 37.5523 8.13333 37.5123 7.84C37.2857 7.73333 37.0323 7.64667 36.7523 7.58C36.4857 7.51333 36.239 7.48 36.0123 7.48C35.4657 7.48 35.0323 7.61333 34.7123 7.88C34.3923 8.13333 34.2323 8.50667 34.2323 9C34.2323 9.33333 34.319 9.60667 34.4923 9.82C34.6657 10.0333 34.9123 10.2267 35.2323 10.4C35.5523 10.56 35.9457 10.72 36.4123 10.88C37.0123 11.0933 37.5457 11.3267 38.0123 11.58C38.479 11.8333 38.8457 12.16 39.1123 12.56C39.3923 12.9467 39.5323 13.4733 39.5323 14.14ZM46.1278 21.9C46.1278 21.9667 46.0611 22 45.9278 22H41.4078V21.64C41.4078 21.4533 41.4811 21.34 41.6278 21.3C41.9878 21.1933 42.2345 21.0867 42.3678 20.98C42.5145 20.8733 42.5878 20.7267 42.5878 20.54V8.46C42.5878 8.3 42.5345 8.18667 42.4278 8.12C42.3345 8.05333 42.0611 7.97333 41.6078 7.88C41.4745 7.84 41.4078 7.76667 41.4078 7.66V7.28L44.5078 6.62L44.4478 8.12C44.8211 7.64 45.2678 7.27333 45.7878 7.02C46.3211 6.76667 46.8545 6.64 47.3878 6.64C48.2278 6.64 48.9478 6.84667 49.5478 7.26C50.1611 7.66 50.6278 8.23333 50.9478 8.98C51.2811 9.72667 51.4478 10.6067 51.4478 11.62C51.4478 12.66 51.2478 13.6067 50.8478 14.46C50.4478 15.3133 49.8678 15.9933 49.1078 16.5C48.3611 16.9933 47.4478 17.24 46.3678 17.24C46.0211 17.24 45.6878 17.2133 45.3678 17.16C45.0478 17.1067 44.7411 17.0333 44.4478 16.94V21L46.1278 21.36V21.9ZM46.4678 8C46.1078 8 45.7545 8.06 45.4078 8.18C45.0611 8.3 44.7411 8.47333 44.4478 8.7V15.38C44.6345 15.66 44.9011 15.8933 45.2478 16.08C45.6078 16.2533 46.0078 16.34 46.4478 16.34C47.0611 16.34 47.6011 16.18 48.0678 15.86C48.5345 15.54 48.9011 15.0733 49.1678 14.46C49.4345 13.8333 49.5678 13.08 49.5678 12.2C49.5678 11.1467 49.4278 10.3133 49.1478 9.7C48.8678 9.08667 48.4945 8.65333 48.0278 8.4C47.5745 8.13333 47.0545 8 46.4678 8ZM61.0772 17.24C60.6372 17.24 60.2705 17.1133 59.9772 16.86C59.6839 16.5933 59.5039 16.2333 59.4372 15.78C59.0772 16.2067 58.6172 16.56 58.0572 16.84C57.4972 17.1067 56.9239 17.24 56.3372 17.24C55.5239 17.24 54.8639 17.0067 54.3572 16.54C53.8639 16.06 53.6172 15.4 53.6172 14.56C53.6172 13.8533 53.8305 13.2933 54.2572 12.88C54.6839 12.4533 55.2705 12.1533 56.0172 11.98C56.7639 11.7933 57.6239 11.7 58.5972 11.7H59.3772V9.86C59.3772 9.22 59.2705 8.73333 59.0572 8.4C58.8572 8.06667 58.5839 7.84 58.2372 7.72C57.9039 7.6 57.5305 7.54 57.1172 7.54C56.8905 7.54 56.6572 7.55333 56.4172 7.58C56.1772 7.60667 55.9572 7.64667 55.7572 7.7C55.7305 7.99333 55.6772 8.32 55.5972 8.68C55.5305 9.02667 55.4439 9.32 55.3372 9.56C55.2839 9.65333 55.2305 9.72667 55.1772 9.78C55.1372 9.82 55.0772 9.84 54.9972 9.84H54.3972L54.1172 7.52C54.4639 7.33333 54.8305 7.17333 55.2172 7.04C55.6039 6.90667 56.0172 6.80667 56.4572 6.74C56.8972 6.67333 57.3505 6.64 57.8172 6.64C58.6839 6.64 59.3639 6.76667 59.8572 7.02C60.3505 7.27333 60.7039 7.63333 60.9172 8.1C61.1305 8.55333 61.2372 9.09333 61.2372 9.72V15.08C61.2372 15.4133 61.3039 15.6467 61.4372 15.78C61.5839 15.9 61.7705 15.96 61.9972 15.96C62.1172 15.96 62.2239 15.9467 62.3172 15.92C62.4239 15.8933 62.5239 15.8467 62.6172 15.78L62.9572 16.34C62.7705 16.62 62.5105 16.84 62.1772 17C61.8439 17.16 61.4772 17.24 61.0772 17.24ZM55.3772 14.34C55.3772 14.7933 55.5105 15.1867 55.7772 15.52C56.0572 15.84 56.4972 16 57.0972 16C57.5105 16 57.9105 15.92 58.2972 15.76C58.6972 15.6 59.0572 15.4133 59.3772 15.2V12.46H58.6372C57.5839 12.4733 56.7772 12.64 56.2172 12.96C55.6572 13.28 55.3772 13.74 55.3772 14.34ZM70.7375 7.9C70.5775 7.78 70.3708 7.69333 70.1175 7.64C69.8775 7.57333 69.6508 7.54 69.4375 7.54C68.4775 7.54 67.7575 7.89333 67.2775 8.6C66.7975 9.30667 66.5575 10.2667 66.5575 11.48C66.5575 12.88 66.8508 13.98 67.4375 14.78C68.0242 15.58 68.8508 15.98 69.9175 15.98C70.4242 15.98 70.8775 15.9133 71.2775 15.78C71.6775 15.6467 72.0042 15.48 72.2575 15.28L72.6775 15.88C72.3042 16.32 71.7975 16.66 71.1575 16.9C70.5308 17.1267 69.8708 17.24 69.1775 17.24C68.3108 17.24 67.5308 17.0267 66.8375 16.6C66.1442 16.16 65.5975 15.5533 65.1975 14.78C64.8108 13.9933 64.6175 13.0733 64.6175 12.02C64.6175 10.9533 64.8175 10.02 65.2175 9.22C65.6308 8.40667 66.2108 7.77333 66.9575 7.32C67.7175 6.86667 68.6042 6.64 69.6175 6.64C70.1908 6.64 70.6975 6.69333 71.1375 6.8C71.5775 6.90667 71.9975 7.06 72.3975 7.26L72.0575 10.12H71.5575C71.3842 10.12 71.2575 10.0267 71.1775 9.84C71.0842 9.58667 70.9908 9.28 70.8975 8.92C70.8175 8.56 70.7642 8.22 70.7375 7.9ZM82.8747 15.88C82.6214 16.1733 82.3014 16.4267 81.9147 16.64C81.5414 16.84 81.128 16.9867 80.6747 17.08C80.2347 17.1867 79.7814 17.24 79.3147 17.24C78.4214 17.24 77.628 17.02 76.9347 16.58C76.2414 16.14 75.7014 15.52 75.3147 14.72C74.928 13.9067 74.7347 12.9467 74.7347 11.84C74.7347 10.8267 74.9147 9.92667 75.2747 9.14C75.648 8.35333 76.1614 7.74 76.8147 7.3C77.4814 6.86 78.2614 6.64 79.1547 6.64C80.0214 6.64 80.7214 6.82 81.2547 7.18C81.8014 7.52667 82.2014 8 82.4547 8.6C82.7214 9.2 82.8547 9.88667 82.8547 10.66C82.8547 10.7933 82.8547 10.9333 82.8547 11.08C82.8547 11.2133 82.8414 11.36 82.8147 11.52C82.4547 11.6 82.008 11.6733 81.4747 11.74C80.9547 11.8067 80.3947 11.86 79.7947 11.9C79.208 11.94 78.6347 11.9733 78.0747 12C77.5147 12.0133 77.028 12.0133 76.6147 12C76.708 13.2933 77.048 14.28 77.6347 14.96C78.2347 15.64 79.0414 15.98 80.0547 15.98C80.5747 15.98 81.0347 15.9133 81.4347 15.78C81.848 15.6467 82.1814 15.48 82.4347 15.28L82.8747 15.88ZM78.9347 7.54C78.2414 7.54 77.6814 7.85333 77.2547 8.48C76.8414 9.09333 76.6214 10.0133 76.5947 11.24L81.0547 10.84C81.108 10.2533 81.0747 9.71333 80.9547 9.22C80.8347 8.71333 80.608 8.30667 80.2747 8C79.9547 7.69333 79.508 7.54 78.9347 7.54ZM89.2853 16.9C89.2853 16.9667 89.2186 17 89.0853 17H84.9853V16.64C84.9853 16.4533 85.052 16.34 85.1853 16.3C85.5453 16.1933 85.7986 16.0933 85.9453 16C86.092 15.8933 86.1653 15.74 86.1653 15.54V3.6C86.1653 3.44 86.112 3.32667 86.0053 3.26C85.8986 3.18 85.6253 3.09333 85.1853 3C85.052 2.97333 84.9853 2.90667 84.9853 2.8V2.42L88.0653 1.76L88.0253 3.4V16L89.2853 16.38V16.9ZM95.4253 16.9C95.4253 16.9667 95.3586 17 95.2253 17H92.6053L88.4453 11.98V11.58L91.3053 8.66C91.4386 8.54 91.5453 8.43333 91.6253 8.34C91.7053 8.23333 91.7453 8.14 91.7453 8.06C91.7453 7.96667 91.6786 7.88667 91.5453 7.82C91.412 7.75333 91.1853 7.66667 90.8653 7.56C90.7853 7.53333 90.732 7.49333 90.7053 7.44C90.6786 7.38667 90.6653 7.31333 90.6653 7.22V6.88H94.8453C94.9786 6.88 95.0453 6.91333 95.0453 6.98V7.5L93.6453 7.9L89.9653 11.08L94.1453 15.98L95.4253 16.38V16.9ZM98.9798 4.72C98.7398 4.72 98.5265 4.66667 98.3398 4.56C98.1665 4.45333 98.0265 4.31333 97.9198 4.14C97.8132 3.96667 97.7598 3.77333 97.7598 3.56C97.7598 3.34667 97.8132 3.15333 97.9198 2.98C98.0265 2.79333 98.1665 2.64667 98.3398 2.54C98.5265 2.43333 98.7398 2.38 98.9798 2.38C99.2198 2.38 99.4265 2.43333 99.5998 2.54C99.7732 2.64667 99.9065 2.79333 99.9998 2.98C100.107 3.15333 100.16 3.34667 100.16 3.56C100.16 3.77333 100.107 3.96667 99.9998 4.14C99.9065 4.31333 99.7732 4.45333 99.5998 4.56C99.4265 4.66667 99.2198 4.72 98.9798 4.72ZM101.2 16.9C101.2 16.9667 101.133 17 101 17H96.8798V16.64C96.8798 16.4533 96.9465 16.34 97.0798 16.3C97.4398 16.1933 97.6932 16.0933 97.8398 16C97.9865 15.8933 98.0598 15.7467 98.0598 15.56V8.44C98.0598 8.29333 98.0065 8.18667 97.8998 8.12C97.7932 8.05333 97.5198 7.97333 97.0798 7.88C96.9465 7.85333 96.8798 7.78 96.8798 7.66V7.28L99.9598 6.64L99.9198 8.26V16.02L101.2 16.38V16.9ZM102.635 7.82V6.88H104.015L105.195 3.92H105.835V6.88H108.555V8.06C108.195 8.02 107.795 7.98667 107.355 7.96C106.915 7.92 106.408 7.89333 105.835 7.88V14.06C105.835 14.7 105.935 15.1733 106.135 15.48C106.335 15.7867 106.648 15.94 107.075 15.94C107.342 15.94 107.615 15.8933 107.895 15.8C108.188 15.7067 108.442 15.5933 108.655 15.46L109.075 16.1C108.742 16.4467 108.308 16.7267 107.775 16.94C107.242 17.14 106.702 17.24 106.155 17.24C105.542 17.24 105.022 17.0333 104.595 16.62C104.182 16.2067 103.975 15.5067 103.975 14.52V7.82H102.635Z" fill="#121212"/>
</svg>
